<?xml version="1.0" encoding="UTF-8" standalone="no"?>
<!DOCTYPE svg PUBLIC "-//W3C//DTD SVG 1.1//EN"
 "http://www.w3.org/Graphics/SVG/1.1/DTD/svg11.dtd">
<!-- Generated by graphviz version 16.0.0 (20260814.1018)
 -->
<!-- Title: G Pages: 1 -->
<svg width="3154pt" height="542pt"
 viewBox="0.00 0.00 3154.00 542.00" xmlns="http://www.w3.org/2000/svg" xmlns:xlink="http://www.w3.org/1999/xlink">
<g id="graph0" class="graph" transform="scale(1 1) rotate(0) translate(18 523.8)">
<title>G</title>
<text xml:space="preserve" text-anchor="middle" x="1558.84" y="-8.2" font-family="Arial" font-size="14.00">Solid: a state Stage 3 can put a ticket into. Dashed: drawn, and not reachable yet — the mechanism does not exist.</text>
<!-- draft -->
<g id="node1" class="node">
<title>draft</title>
<path fill="#eef2ff" stroke="#9ca3af" stroke-dasharray="5,2" d="M42,-461.8C42,-461.8 12,-461.8 12,-461.8 6,-461.8 0,-455.8 0,-449.8 0,-449.8 0,-437.8 0,-437.8 0,-431.8 6,-425.8 12,-425.8 12,-425.8 42,-425.8 42,-425.8 48,-425.8 54,-431.8 54,-437.8 54,-437.8 54,-449.8 54,-449.8 54,-455.8 48,-461.8 42,-461.8"/>
<text xml:space="preserve" text-anchor="middle" x="27" y="-441.25" font-family="Arial" font-size="8.50">DRAFT</text>
</g>
<!-- spec -->
<g id="node2" class="node">
<title>spec</title>
<path fill="#eef2ff" stroke="#9ca3af" stroke-dasharray="5,2" d="M150.32,-461.8C150.32,-461.8 107,-461.8 107,-461.8 101,-461.8 95,-455.8 95,-449.8 95,-449.8 95,-437.8 95,-437.8 95,-431.8 101,-425.8 107,-425.8 107,-425.8 150.32,-425.8 150.32,-425.8 156.32,-425.8 162.32,-431.8 162.32,-437.8 162.32,-437.8 162.32,-449.8 162.32,-449.8 162.32,-455.8 156.32,-461.8 150.32,-461.8"/>
<text xml:space="preserve" text-anchor="middle" x="128.66" y="-441.25" font-family="Arial" font-size="8.50">SPECIFYING</text>
</g>
<!-- draft&#45;&gt;spec -->
<g id="edge1" class="edge">
<title>draft&#45;&gt;spec</title>
<path fill="none" stroke="#6b7280" d="M54.45,-443.8C64.47,-443.8 76.13,-443.8 87.16,-443.8"/>
<polygon fill="#6b7280" stroke="#6b7280" points="86.95,-445.97 93.15,-443.8 86.95,-441.63 86.95,-445.97"/>
</g>
<!-- plan -->
<g id="node3" class="node">
<title>plan</title>
<path fill="#ede9fe" stroke="#374151" d="M267.62,-430.8C267.62,-430.8 215.32,-430.8 215.32,-430.8 209.32,-430.8 203.32,-424.8 203.32,-418.8 203.32,-418.8 203.32,-406.8 203.32,-406.8 203.32,-400.8 209.32,-394.8 215.32,-394.8 215.32,-394.8 267.62,-394.8 267.62,-394.8 273.62,-394.8 279.62,-400.8 279.62,-406.8 279.62,-406.8 279.62,-418.8 279.62,-418.8 279.62,-424.8 273.62,-430.8 267.62,-430.8"/>
<text xml:space="preserve" text-anchor="middle" x="241.47" y="-410.25" font-family="Arial" font-size="8.50">PLAN_REVIEW</text>
</g>
<!-- spec&#45;&gt;plan -->
<g id="edge2" class="edge">
<title>spec&#45;&gt;plan</title>
<path fill="none" stroke="#6b7280" d="M162.61,-434.58C173.07,-431.65 184.83,-428.37 195.97,-425.25"/>
<polygon fill="#6b7280" stroke="#6b7280" points="196.34,-427.4 201.73,-423.64 195.17,-423.22 196.34,-427.4"/>
</g>
<!-- cancelled -->
<g id="node19" class="node">
<title>cancelled</title>
<path fill="#e5e7eb" stroke="#374151" d="M1340.21,-355.8C1340.21,-355.8 1297.36,-355.8 1297.36,-355.8 1291.36,-355.8 1285.36,-349.8 1285.36,-343.8 1285.36,-343.8 1285.36,-331.8 1285.36,-331.8 1285.36,-325.8 1291.36,-319.8 1297.36,-319.8 1297.36,-319.8 1340.21,-319.8 1340.21,-319.8 1346.21,-319.8 1352.21,-325.8 1352.21,-331.8 1352.21,-331.8 1352.21,-343.8 1352.21,-343.8 1352.21,-349.8 1346.21,-355.8 1340.21,-355.8"/>
<text xml:space="preserve" text-anchor="middle" x="1318.78" y="-335.25" font-family="Arial" font-size="8.50">CANCELLED</text>
</g>
<!-- spec&#45;&gt;cancelled -->
<g id="edge32" class="edge">
<title>spec&#45;&gt;cancelled</title>
<path fill="none" stroke="#6b7280" d="M162.53,-449.24C184.53,-452.41 214.16,-455.8 240.47,-455.8 240.47,-455.8 240.47,-455.8 779.74,-455.8 861.82,-455.8 1084.1,-485.69 1148.49,-434.8 1172.87,-415.53 1145.53,-388.74 1168.49,-367.8 1197.91,-340.97 1244.39,-335.32 1277.67,-335.22"/>
<polygon fill="#6b7280" stroke="#6b7280" points="1277.25,-337.39 1283.47,-335.28 1277.29,-333.05 1277.25,-337.39"/>
</g>
<!-- ready -->
<g id="node4" class="node">
<title>ready</title>
<path fill="#dcfce7" stroke="#374151" d="M362.62,-281.8C362.62,-281.8 332.62,-281.8 332.62,-281.8 326.62,-281.8 320.62,-275.8 320.62,-269.8 320.62,-269.8 320.62,-257.8 320.62,-257.8 320.62,-251.8 326.62,-245.8 332.62,-245.8 332.62,-245.8 362.62,-245.8 362.62,-245.8 368.62,-245.8 374.62,-251.8 374.62,-257.8 374.62,-257.8 374.62,-269.8 374.62,-269.8 374.62,-275.8 368.62,-281.8 362.62,-281.8"/>
<text xml:space="preserve" text-anchor="middle" x="347.62" y="-261.25" font-family="Arial" font-size="8.50">READY</text>
</g>
<!-- plan&#45;&gt;ready -->
<g id="edge3" class="edge">
<title>plan&#45;&gt;ready</title>
<path fill="none" stroke="#6b7280" d="M255.24,-394.53C273.91,-367.83 308.67,-318.1 329.52,-288.27"/>
<polygon fill="#6b7280" stroke="#6b7280" points="331.11,-289.79 332.88,-283.46 327.55,-287.3 331.11,-289.79"/>
</g>
<!-- changes -->
<g id="node15" class="node">
<title>changes</title>
<path fill="#fed7aa" stroke="#374151" d="M2541.3,-358.8C2541.3,-358.8 2449.8,-358.8 2449.8,-358.8 2443.8,-358.8 2437.8,-352.8 2437.8,-346.8 2437.8,-346.8 2437.8,-334.8 2437.8,-334.8 2437.8,-328.8 2443.8,-322.8 2449.8,-322.8 2449.8,-322.8 2541.3,-322.8 2541.3,-322.8 2547.3,-322.8 2553.3,-328.8 2553.3,-334.8 2553.3,-334.8 2553.3,-346.8 2553.3,-346.8 2553.3,-352.8 2547.3,-358.8 2541.3,-358.8"/>
<text xml:space="preserve" text-anchor="middle" x="2495.55" y="-338.25" font-family="Arial" font-size="8.50">CHANGES_REQUESTED</text>
</g>
<!-- plan&#45;&gt;changes -->
<g id="edge14" class="edge">
<title>plan&#45;&gt;changes</title>
<path fill="none" stroke="#6b7280" d="M280.01,-417.62C299.79,-419.76 324.48,-421.8 346.62,-421.8 346.62,-421.8 346.62,-421.8 2229.66,-421.8 2314.72,-421.8 2338.26,-416.92 2417.8,-386.8 2433.41,-380.89 2449.43,-371.84 2462.78,-363.33"/>
<polygon fill="#6b7280" stroke="#6b7280" points="2463.82,-365.24 2467.83,-360.03 2461.45,-361.6 2463.82,-365.24"/>
<text xml:space="preserve" text-anchor="middle" x="989.97" y="-424.05" font-family="Arial" font-size="7.50">reject</text>
</g>
<!-- provision -->
<g id="node5" class="node">
<title>provision</title>
<path fill="#eef2ff" stroke="#374151" d="M693.03,-266.8C693.03,-266.8 638.84,-266.8 638.84,-266.8 632.84,-266.8 626.84,-260.8 626.84,-254.8 626.84,-254.8 626.84,-242.8 626.84,-242.8 626.84,-236.8 632.84,-230.8 638.84,-230.8 638.84,-230.8 693.03,-230.8 693.03,-230.8 699.03,-230.8 705.03,-236.8 705.03,-242.8 705.03,-242.8 705.03,-254.8 705.03,-254.8 705.03,-260.8 699.03,-266.8 693.03,-266.8"/>
<text xml:space="preserve" text-anchor="middle" x="665.94" y="-246.25" font-family="Arial" font-size="8.50">PROVISIONING</text>
</g>
<!-- ready&#45;&gt;provision -->
<g id="edge4" class="edge">
<title>ready&#45;&gt;provision</title>
<path fill="none" stroke="#6b7280" d="M375.05,-262.55C428.88,-259.99 551.81,-254.16 619,-250.98"/>
<polygon fill="#6b7280" stroke="#6b7280" points="618.92,-253.15 625.01,-250.69 618.71,-248.82 618.92,-253.15"/>
</g>
<!-- invalid -->
<g id="node16" class="node">
<title>invalid</title>
<path fill="#fde68a" stroke="#374151" d="M691.85,-214.8C691.85,-214.8 640.02,-214.8 640.02,-214.8 634.02,-214.8 628.02,-208.8 628.02,-202.8 628.02,-202.8 628.02,-190.8 628.02,-190.8 628.02,-184.8 634.02,-178.8 640.02,-178.8 640.02,-178.8 691.85,-178.8 691.85,-178.8 697.85,-178.8 703.85,-184.8 703.85,-190.8 703.85,-190.8 703.85,-202.8 703.85,-202.8 703.85,-208.8 697.85,-214.8 691.85,-214.8"/>
<text xml:space="preserve" text-anchor="middle" x="665.94" y="-194.25" font-family="Arial" font-size="8.50">PLAN_INVALID</text>
</g>
<!-- ready&#45;&gt;invalid -->
<g id="edge18" class="edge">
<title>ready&#45;&gt;invalid</title>
<path fill="none" stroke="#6b7280" d="M374.67,-247.64C381.01,-244.28 387.91,-241.07 394.62,-238.8 471.33,-212.87 565.75,-202.85 620.27,-199.05"/>
<polygon fill="#6b7280" stroke="#6b7280" points="620.14,-201.23 626.18,-198.65 619.85,-196.9 620.14,-201.23"/>
<text xml:space="preserve" text-anchor="middle" x="500.73" y="-241.05" font-family="Arial" font-size="7.50">the spec it was drafted from is stale</text>
</g>
<!-- blocked -->
<g id="node17" class="node">
<title>blocked</title>
<path fill="#fecaca" stroke="#374151" d="M682.17,-326.8C682.17,-326.8 649.7,-326.8 649.7,-326.8 643.7,-326.8 637.7,-320.8 637.7,-314.8 637.7,-314.8 637.7,-302.8 637.7,-302.8 637.7,-296.8 643.7,-290.8 649.7,-290.8 649.7,-290.8 682.17,-290.8 682.17,-290.8 688.17,-290.8 694.17,-296.8 694.17,-302.8 694.17,-302.8 694.17,-314.8 694.17,-314.8 694.17,-320.8 688.17,-326.8 682.17,-326.8"/>
<text xml:space="preserve" text-anchor="middle" x="665.94" y="-306.25" font-family="Arial" font-size="8.50">BLOCKED</text>
</g>
<!-- ready&#45;&gt;blocked -->
<g id="edge19" class="edge">
<title>ready&#45;&gt;blocked</title>
<path fill="none" stroke="#6b7280" d="M375.04,-280.61C381.25,-283.86 388,-286.85 394.62,-288.8 476.22,-312.78 577.32,-312.87 629.73,-310.85"/>
<polygon fill="#6b7280" stroke="#6b7280" points="629.79,-313.02 635.89,-310.59 629.61,-308.68 629.79,-313.02"/>
<text xml:space="preserve" text-anchor="middle" x="500.73" y="-313.89" font-family="Arial" font-size="7.50">waits: a dependency unmerged, or a scope a ticket ahead holds</text>
</g>
<!-- execute -->
<g id="node6" class="node">
<title>execute</title>
<path fill="#cffafe" stroke="#374151" d="M799.46,-266.8C799.46,-266.8 758.03,-266.8 758.03,-266.8 752.03,-266.8 746.03,-260.8 746.03,-254.8 746.03,-254.8 746.03,-242.8 746.03,-242.8 746.03,-236.8 752.03,-230.8 758.03,-230.8 758.03,-230.8 799.46,-230.8 799.46,-230.8 805.46,-230.8 811.46,-236.8 811.46,-242.8 811.46,-242.8 811.46,-254.8 811.46,-254.8 811.46,-260.8 805.46,-266.8 799.46,-266.8"/>
<text xml:space="preserve" text-anchor="middle" x="778.74" y="-246.25" font-family="Arial" font-size="8.50">EXECUTING</text>
</g>
<!-- provision&#45;&gt;execute -->
<g id="edge5" class="edge">
<title>provision&#45;&gt;execute</title>
<path fill="none" stroke="#6b7280" d="M705.38,-248.8C715.94,-248.8 727.41,-248.8 738.05,-248.8"/>
<polygon fill="#6b7280" stroke="#6b7280" points="737.9,-250.97 744.1,-248.8 737.9,-246.63 737.9,-250.97"/>
</g>
<!-- pr -->
<g id="node9" class="node">
<title>pr</title>
<path fill="#eef2ff" stroke="#374151" d="M2244.89,-193.8C2244.89,-193.8 2212.43,-193.8 2212.43,-193.8 2206.43,-193.8 2200.43,-187.8 2200.43,-181.8 2200.43,-181.8 2200.43,-169.8 2200.43,-169.8 2200.43,-163.8 2206.43,-157.8 2212.43,-157.8 2212.43,-157.8 2244.89,-157.8 2244.89,-157.8 2250.89,-157.8 2256.89,-163.8 2256.89,-169.8 2256.89,-169.8 2256.89,-181.8 2256.89,-181.8 2256.89,-187.8 2250.89,-193.8 2244.89,-193.8"/>
<text xml:space="preserve" text-anchor="middle" x="2228.66" y="-173.25" font-family="Arial" font-size="8.50">PR_OPEN</text>
</g>
<!-- provision&#45;&gt;pr -->
<g id="edge23" class="edge">
<title>provision&#45;&gt;pr</title>
<path fill="none" stroke="#6b7280" d="M695.4,-230.53C698.74,-228.05 702.02,-225.45 705.03,-222.8 741.58,-190.6 729.03,-140.8 777.74,-140.8 777.74,-140.8 777.74,-140.8 1980.51,-140.8 2056.81,-140.8 2145.08,-157.36 2192.75,-167.7"/>
<polygon fill="#6b7280" stroke="#6b7280" points="2192.04,-169.76 2198.57,-168.97 2192.98,-165.52 2192.04,-169.76"/>
<text xml:space="preserve" text-anchor="middle" x="1318.78" y="-143.05" font-family="Arial" font-size="7.50">every standing finding shipped as it is by a person or verified closed, on the judged commit</text>
</g>
<!-- provision&#45;&gt;changes -->
<g id="edge24" class="edge">
<title>provision&#45;&gt;changes</title>
<path fill="none" stroke="#6b7280" d="M694.33,-267.24C716,-280.04 747.54,-294.8 777.74,-294.8 777.74,-294.8 777.74,-294.8 2229.66,-294.8 2298.87,-294.8 2376.77,-310.23 2430.08,-323.22"/>
<polygon fill="#6b7280" stroke="#6b7280" points="2429.43,-325.29 2435.97,-324.67 2430.47,-321.08 2429.43,-325.29"/>
<text xml:space="preserve" text-anchor="middle" x="1695.54" y="-297.05" font-family="Arial" font-size="7.50">the same, with a finding the executor declined left for a principle: escalated; or refused by the loop, owed a person&#39;s answers</text>
</g>
<!-- failed -->
<g id="node18" class="node">
<title>failed</title>
<path fill="#fecaca" stroke="#374151" d="M1994.51,-201.8C1994.51,-201.8 1964.51,-201.8 1964.51,-201.8 1958.51,-201.8 1952.51,-195.8 1952.51,-189.8 1952.51,-189.8 1952.51,-177.8 1952.51,-177.8 1952.51,-171.8 1958.51,-165.8 1964.51,-165.8 1964.51,-165.8 1994.51,-165.8 1994.51,-165.8 2000.51,-165.8 2006.51,-171.8 2006.51,-177.8 2006.51,-177.8 2006.51,-189.8 2006.51,-189.8 2006.51,-195.8 2000.51,-201.8 1994.51,-201.8"/>
<text xml:space="preserve" text-anchor="middle" x="1979.51" y="-181.25" font-family="Arial" font-size="8.50">FAILED</text>
</g>
<!-- provision&#45;&gt;failed -->
<g id="edge22" class="edge">
<title>provision&#45;&gt;failed</title>
<path fill="none" stroke="#6b7280" d="M705.51,-234.67C738.45,-223.42 787.35,-208.62 831.46,-202.8 1267.97,-145.15 1805.96,-172.9 1944.65,-181.55"/>
<polygon fill="#6b7280" stroke="#6b7280" points="1944.25,-183.69 1950.57,-181.92 1944.52,-179.36 1944.25,-183.69"/>
<text xml:space="preserve" text-anchor="middle" x="989.97" y="-205.05" font-family="Arial" font-size="7.50">did not complete; or refused by the loop, owed a person&#39;s answers, where the run found it failed</text>
</g>
<!-- verify -->
<g id="node7" class="node">
<title>verify</title>
<path fill="#fef3c7" stroke="#374151" d="M1337.61,-235.8C1337.61,-235.8 1299.96,-235.8 1299.96,-235.8 1293.96,-235.8 1287.96,-229.8 1287.96,-223.8 1287.96,-223.8 1287.96,-211.8 1287.96,-211.8 1287.96,-205.8 1293.96,-199.8 1299.96,-199.8 1299.96,-199.8 1337.61,-199.8 1337.61,-199.8 1343.61,-199.8 1349.61,-205.8 1349.61,-211.8 1349.61,-211.8 1349.61,-223.8 1349.61,-223.8 1349.61,-229.8 1343.61,-235.8 1337.61,-235.8"/>
<text xml:space="preserve" text-anchor="middle" x="1318.78" y="-215.25" font-family="Arial" font-size="8.50">VERIFYING</text>
</g>
<!-- execute&#45;&gt;verify -->
<g id="edge6" class="edge">
<title>execute&#45;&gt;verify</title>
<path fill="none" stroke="#6b7280" d="M811.81,-239.63C818.27,-238.1 825.04,-236.71 831.46,-235.8 997.36,-212.14 1198.14,-214.34 1280.15,-216.53"/>
<polygon fill="#6b7280" stroke="#6b7280" points="1279.94,-218.69 1286.19,-216.7 1280.06,-214.35 1279.94,-218.69"/>
</g>
<!-- execute&#45;&gt;failed -->
<g id="edge25" class="edge">
<title>execute&#45;&gt;failed</title>
<path fill="none" stroke="#6b7280" d="M811.88,-249.21C972.12,-251.03 1685.72,-256.37 1902,-210.8 1916.42,-207.76 1931.83,-202.7 1945.01,-197.77"/>
<polygon fill="#6b7280" stroke="#6b7280" points="1945.66,-199.85 1950.68,-195.6 1944.11,-195.79 1945.66,-199.85"/>
</g>
<!-- execute&#45;&gt;cancelled -->
<g id="edge33" class="edge">
<title>execute&#45;&gt;cancelled</title>
<path fill="none" stroke="#6b7280" d="M811.71,-255.14C818.24,-256.39 825.06,-257.66 831.46,-258.8 996.63,-288.18 1194.16,-318.91 1277.53,-331.68"/>
<polygon fill="#6b7280" stroke="#6b7280" points="1277.04,-333.8 1283.5,-332.59 1277.7,-329.51 1277.04,-333.8"/>
</g>
<!-- review -->
<g id="node8" class="node">
<title>review</title>
<path fill="#ede9fe" stroke="#374151" d="M2025.02,-253.8C2025.02,-253.8 1934,-253.8 1934,-253.8 1928,-253.8 1922,-247.8 1922,-241.8 1922,-241.8 1922,-229.8 1922,-229.8 1922,-223.8 1928,-217.8 1934,-217.8 1934,-217.8 2025.02,-217.8 2025.02,-217.8 2031.02,-217.8 2037.02,-223.8 2037.02,-229.8 2037.02,-229.8 2037.02,-241.8 2037.02,-241.8 2037.02,-247.8 2031.02,-253.8 2025.02,-253.8"/>
<text xml:space="preserve" text-anchor="middle" x="1979.51" y="-233.25" font-family="Arial" font-size="8.50">INDEPENDENT_REVIEW</text>
</g>
<!-- verify&#45;&gt;review -->
<g id="edge7" class="edge">
<title>verify&#45;&gt;review</title>
<path fill="none" stroke="#6b7280" d="M1349.8,-218.62C1450.09,-221.36 1775.07,-230.24 1914.27,-234.04"/>
<polygon fill="#6b7280" stroke="#6b7280" points="1914.19,-236.21 1920.45,-234.21 1914.31,-231.87 1914.19,-236.21"/>
</g>
<!-- verify&#45;&gt;failed -->
<g id="edge26" class="edge">
<title>verify&#45;&gt;failed</title>
<path fill="none" stroke="#6b7280" d="M1350.09,-216.25C1436.37,-211.82 1690.75,-198.76 1902,-187.8 1915.99,-187.07 1931.42,-186.27 1944.73,-185.57"/>
<polygon fill="#6b7280" stroke="#6b7280" points="1944.71,-187.75 1950.79,-185.25 1944.49,-183.41 1944.71,-187.75"/>
</g>
<!-- review&#45;&gt;pr -->
<g id="edge8" class="edge">
<title>review&#45;&gt;pr</title>
<path fill="none" stroke="#6b7280" d="M2037.11,-226.36C2077.46,-219.04 2132.79,-207.79 2180.43,-193.8 2184.53,-192.6 2188.78,-191.2 2192.97,-189.73"/>
<polygon fill="#6b7280" stroke="#6b7280" points="2193.43,-191.87 2198.51,-187.71 2191.95,-187.79 2193.43,-191.87"/>
</g>
<!-- review&#45;&gt;changes -->
<g id="edge15" class="edge">
<title>review&#45;&gt;changes</title>
<path fill="none" stroke="#6b7280" d="M2037.27,-237.94C2139.45,-242.43 2350.02,-254.72 2417.8,-281.8 2437.92,-289.84 2457.24,-304.74 2471.46,-317.55"/>
<polygon fill="#6b7280" stroke="#6b7280" points="2469.7,-318.89 2475.73,-321.5 2472.65,-315.7 2469.7,-318.89"/>
<text xml:space="preserve" text-anchor="middle" x="2228.66" y="-254.68" font-family="Arial" font-size="7.50">blocking finding</text>
</g>
<!-- merged -->
<g id="node10" class="node">
<title>merged</title>
<path fill="#eef2ff" stroke="#374151" d="M2510.55,-186.8C2510.55,-186.8 2480.55,-186.8 2480.55,-186.8 2474.55,-186.8 2468.55,-180.8 2468.55,-174.8 2468.55,-174.8 2468.55,-162.8 2468.55,-162.8 2468.55,-156.8 2474.55,-150.8 2480.55,-150.8 2480.55,-150.8 2510.55,-150.8 2510.55,-150.8 2516.55,-150.8 2522.55,-156.8 2522.55,-162.8 2522.55,-162.8 2522.55,-174.8 2522.55,-174.8 2522.55,-180.8 2516.55,-186.8 2510.55,-186.8"/>
<text xml:space="preserve" text-anchor="middle" x="2495.55" y="-166.25" font-family="Arial" font-size="8.50">MERGED</text>
</g>
<!-- pr&#45;&gt;merged -->
<g id="edge9" class="edge">
<title>pr&#45;&gt;merged</title>
<path fill="none" stroke="#6b7280" d="M2257.01,-175.08C2305.77,-173.79 2407.56,-171.1 2460.67,-169.7"/>
<polygon fill="#6b7280" stroke="#6b7280" points="2460.49,-171.87 2466.63,-169.54 2460.37,-167.53 2460.49,-171.87"/>
</g>
<!-- closed -->
<g id="node11" class="node">
<title>closed</title>
<path fill="#e5e7eb" stroke="#374151" d="M2510.55,-110.8C2510.55,-110.8 2480.55,-110.8 2480.55,-110.8 2474.55,-110.8 2468.55,-104.8 2468.55,-98.8 2468.55,-98.8 2468.55,-86.8 2468.55,-86.8 2468.55,-80.8 2474.55,-74.8 2480.55,-74.8 2480.55,-74.8 2510.55,-74.8 2510.55,-74.8 2516.55,-74.8 2522.55,-80.8 2522.55,-86.8 2522.55,-86.8 2522.55,-98.8 2522.55,-98.8 2522.55,-104.8 2516.55,-110.8 2510.55,-110.8"/>
<text xml:space="preserve" text-anchor="middle" x="2495.55" y="-90.25" font-family="Arial" font-size="8.50">CLOSED</text>
</g>
<!-- pr&#45;&gt;closed -->
<g id="edge29" class="edge">
<title>pr&#45;&gt;closed</title>
<path fill="none" stroke="#6b7280" d="M2257.01,-164.98C2263.5,-162.53 2270.41,-160 2276.89,-157.8 2341.37,-135.92 2417.87,-113.99 2460.85,-102.03"/>
<polygon fill="#6b7280" stroke="#6b7280" points="2461.37,-104.14 2466.76,-100.39 2460.21,-99.96 2461.37,-104.14"/>
<text xml:space="preserve" text-anchor="middle" x="2347.35" y="-160.05" font-family="Arial" font-size="7.50">closed without merging, read by sync</text>
</g>
<!-- pr&#45;&gt;changes -->
<g id="edge30" class="edge">
<title>pr&#45;&gt;changes</title>
<path fill="none" stroke="#6b7280" d="M2257.25,-182.69C2302.88,-194.45 2391.65,-218.95 2417.8,-237.8 2446.29,-258.33 2468.77,-292.57 2481.86,-315.89"/>
<polygon fill="#6b7280" stroke="#6b7280" points="2479.84,-316.73 2484.73,-321.12 2483.65,-314.64 2479.84,-316.73"/>
<text xml:space="preserve" text-anchor="middle" x="2347.35" y="-240.05" font-family="Arial" font-size="7.50">closed without merging, on a d&#45;073 verdict</text>
</g>
<!-- done -->
<g id="node12" class="node">
<title>done</title>
<path fill="#bbf7d0" stroke="#9ca3af" stroke-dasharray="5,2" d="M3105.68,-143.8C3105.68,-143.8 3075.68,-143.8 3075.68,-143.8 3069.68,-143.8 3063.68,-137.8 3063.68,-131.8 3063.68,-131.8 3063.68,-119.8 3063.68,-119.8 3063.68,-113.8 3069.68,-107.8 3075.68,-107.8 3075.68,-107.8 3105.68,-107.8 3105.68,-107.8 3111.68,-107.8 3117.68,-113.8 3117.68,-119.8 3117.68,-119.8 3117.68,-131.8 3117.68,-131.8 3117.68,-137.8 3111.68,-143.8 3105.68,-143.8"/>
<text xml:space="preserve" text-anchor="middle" x="3090.68" y="-123.25" font-family="Arial" font-size="8.50">DONE</text>
</g>
<!-- merged&#45;&gt;done -->
<g id="edge10" class="edge">
<title>merged&#45;&gt;done</title>
<path fill="none" stroke="#6b7280" d="M2522.85,-168.8C2552.01,-168.8 2600.43,-168.8 2642.13,-168.8 2642.13,-168.8 2642.13,-168.8 2967.37,-168.8 2998.91,-168.8 3032.58,-155.91 3056.59,-144.24"/>
<polygon fill="#6b7280" stroke="#6b7280" points="3057.48,-146.23 3062.05,-141.52 3055.54,-142.35 3057.48,-146.23"/>
</g>
<!-- deployed -->
<g id="node13" class="node">
<title>deployed</title>
<path fill="#dcfce7" stroke="#9ca3af" stroke-dasharray="5,2" d="M2662.2,-137.8C2662.2,-137.8 2624.06,-137.8 2624.06,-137.8 2618.06,-137.8 2612.06,-131.8 2612.06,-125.8 2612.06,-125.8 2612.06,-113.8 2612.06,-113.8 2612.06,-107.8 2618.06,-101.8 2624.06,-101.8 2624.06,-101.8 2662.2,-101.8 2662.2,-101.8 2668.2,-101.8 2674.2,-107.8 2674.2,-113.8 2674.2,-113.8 2674.2,-125.8 2674.2,-125.8 2674.2,-131.8 2668.2,-137.8 2662.2,-137.8"/>
<text xml:space="preserve" text-anchor="middle" x="2643.13" y="-122.35" font-family="Arial" font-size="8.50">DEPLOYED</text>
<text xml:space="preserve" text-anchor="middle" x="2643.13" y="-112.15" font-family="Arial" font-size="8.50">(opt&#45;in)</text>
</g>
<!-- merged&#45;&gt;deployed -->
<g id="edge11" class="edge">
<title>merged&#45;&gt;deployed</title>
<path fill="none" stroke="#6b7280" d="M2522.92,-159.93C2545.76,-152.24 2579.07,-141.03 2604.68,-132.41"/>
<polygon fill="#6b7280" stroke="#6b7280" points="2605.07,-134.57 2610.25,-130.53 2603.68,-130.45 2605.07,-134.57"/>
<text xml:space="preserve" text-anchor="middle" x="2582.68" y="-145.08" font-family="Arial" font-size="7.50">opt&#45;in</text>
</g>
<!-- closed&#45;&gt;ready -->
<g id="edge31" class="edge">
<title>closed&#45;&gt;ready</title>
<path fill="none" stroke="#6b7280" d="M2468.33,-88.34C2420.86,-80.67 2317.49,-65.8 2229.66,-65.8 664.94,-65.8 664.94,-65.8 664.94,-65.8 541.48,-65.8 486.1,-46.89 394.62,-129.8 363.67,-157.85 353.54,-207.65 350.23,-238.01"/>
<polygon fill="#6b7280" stroke="#6b7280" points="348.07,-237.76 349.64,-244.14 352.39,-238.18 348.07,-237.76"/>
<text xml:space="preserve" text-anchor="middle" x="1318.78" y="-68.05" font-family="Arial" font-size="7.50">new attempt</text>
</g>
<!-- observe -->
<g id="node14" class="node">
<title>observe</title>
<path fill="#dbeafe" stroke="#9ca3af" stroke-dasharray="5,2" d="M2817.2,-137.8C2817.2,-137.8 2774.82,-137.8 2774.82,-137.8 2768.82,-137.8 2762.82,-131.8 2762.82,-125.8 2762.82,-125.8 2762.82,-113.8 2762.82,-113.8 2762.82,-107.8 2768.82,-101.8 2774.82,-101.8 2774.82,-101.8 2817.2,-101.8 2817.2,-101.8 2823.2,-101.8 2829.2,-107.8 2829.2,-113.8 2829.2,-113.8 2829.2,-125.8 2829.2,-125.8 2829.2,-131.8 2823.2,-137.8 2817.2,-137.8"/>
<text xml:space="preserve" text-anchor="middle" x="2796.01" y="-122.35" font-family="Arial" font-size="8.50">OBSERVING</text>
<text xml:space="preserve" text-anchor="middle" x="2796.01" y="-112.15" font-family="Arial" font-size="8.50">(opt&#45;in)</text>
</g>
<!-- deployed&#45;&gt;observe -->
<g id="edge12" class="edge">
<title>deployed&#45;&gt;observe</title>
<path fill="none" stroke="#6b7280" d="M2674.66,-119.8C2697.76,-119.8 2729.69,-119.8 2754.86,-119.8"/>
<polygon fill="#6b7280" stroke="#6b7280" points="2754.72,-121.97 2760.92,-119.8 2754.72,-117.63 2754.72,-121.97"/>
</g>
<!-- rollback -->
<g id="node21" class="node">
<title>rollback</title>
<path fill="#fecaca" stroke="#9ca3af" stroke-dasharray="5,2" d="M2822.87,-85.8C2822.87,-85.8 2769.14,-85.8 2769.14,-85.8 2763.14,-85.8 2757.14,-79.8 2757.14,-73.8 2757.14,-73.8 2757.14,-61.8 2757.14,-61.8 2757.14,-55.8 2763.14,-49.8 2769.14,-49.8 2769.14,-49.8 2822.87,-49.8 2822.87,-49.8 2828.87,-49.8 2834.87,-55.8 2834.87,-61.8 2834.87,-61.8 2834.87,-73.8 2834.87,-73.8 2834.87,-79.8 2828.87,-85.8 2822.87,-85.8"/>
<text xml:space="preserve" text-anchor="middle" x="2796.01" y="-65.25" font-family="Arial" font-size="8.50">ROLLED_BACK</text>
</g>
<!-- deployed&#45;&gt;rollback -->
<g id="edge36" class="edge">
<title>deployed&#45;&gt;rollback</title>
<path fill="none" stroke="#6b7280" d="M2674.66,-109.28C2696.22,-101.85 2725.46,-91.77 2749.72,-83.41"/>
<polygon fill="#6b7280" stroke="#6b7280" points="2750.16,-85.55 2755.31,-81.48 2748.74,-81.45 2750.16,-85.55"/>
<text xml:space="preserve" text-anchor="middle" x="2715.67" y="-103.75" font-family="Arial" font-size="7.50">health failure</text>
</g>
<!-- observe&#45;&gt;done -->
<g id="edge13" class="edge">
<title>observe&#45;&gt;done</title>
<path fill="none" stroke="#6b7280" d="M2829.46,-108.58C2870.76,-95.83 2944.17,-78.33 3006.17,-90.8 3023.54,-94.29 3041.81,-101.5 3056.81,-108.47"/>
<polygon fill="#6b7280" stroke="#6b7280" points="3055.56,-110.28 3062.09,-110.99 3057.43,-106.36 3055.56,-110.28"/>
<text xml:space="preserve" text-anchor="middle" x="2966.37" y="-93.05" font-family="Arial" font-size="7.50">observed</text>
</g>
<!-- inconclusive -->
<g id="node20" class="node">
<title>inconclusive</title>
<path fill="#e5e7eb" stroke="#9ca3af" stroke-dasharray="5,2" d="M2994.17,-143.8C2994.17,-143.8 2938.56,-143.8 2938.56,-143.8 2932.56,-143.8 2926.56,-137.8 2926.56,-131.8 2926.56,-131.8 2926.56,-119.8 2926.56,-119.8 2926.56,-113.8 2932.56,-107.8 2938.56,-107.8 2938.56,-107.8 2994.17,-107.8 2994.17,-107.8 3000.17,-107.8 3006.17,-113.8 3006.17,-119.8 3006.17,-119.8 3006.17,-131.8 3006.17,-131.8 3006.17,-137.8 3000.17,-143.8 2994.17,-143.8"/>
<text xml:space="preserve" text-anchor="middle" x="2966.37" y="-123.25" font-family="Arial" font-size="8.50">INCONCLUSIVE</text>
</g>
<!-- observe&#45;&gt;inconclusive -->
<g id="edge34" class="edge">
<title>observe&#45;&gt;inconclusive</title>
<path fill="none" stroke="#6b7280" d="M2829.47,-120.96C2854.82,-121.86 2890.38,-123.13 2918.77,-124.14"/>
<polygon fill="#6b7280" stroke="#6b7280" points="2918.41,-126.3 2924.69,-124.35 2918.57,-121.96 2918.41,-126.3"/>
<text xml:space="preserve" text-anchor="middle" x="2880.72" y="-125.94" font-family="Arial" font-size="7.50">window expired</text>
</g>
<!-- changes&#45;&gt;spec -->
<g id="edge16" class="edge">
<title>changes&#45;&gt;spec</title>
<path fill="none" stroke="#6b7280" d="M2479.69,-359.07C2465.28,-375.84 2442.09,-400.49 2417.8,-416.8 2342.37,-467.45 2320.53,-496.8 2229.66,-496.8 240.47,-496.8 240.47,-496.8 240.47,-496.8 210.52,-496.8 180.07,-480.84 158.69,-466.44"/>
<polygon fill="#6b7280" stroke="#6b7280" points="159.93,-464.66 153.6,-462.9 157.46,-468.22 159.93,-464.66"/>
<text xml:space="preserve" text-anchor="middle" x="778.74" y="-499.05" font-family="Arial" font-size="7.50">revise contract</text>
</g>
<!-- changes&#45;&gt;ready -->
<g id="edge17" class="edge">
<title>changes&#45;&gt;ready</title>
<path fill="none" stroke="#6b7280" d="M2437.46,-356.91C2384.16,-370.51 2302.17,-387.8 2229.66,-387.8 664.94,-387.8 664.94,-387.8 664.94,-387.8 541.58,-387.8 498.02,-392.08 394.62,-324.8 380.8,-315.81 369.56,-301.16 361.64,-288.47"/>
<polygon fill="#6b7280" stroke="#6b7280" points="363.63,-287.57 358.59,-283.36 359.9,-289.79 363.63,-287.57"/>
<text xml:space="preserve" text-anchor="middle" x="1318.78" y="-390.05" font-family="Arial" font-size="7.50">new attempt</text>
</g>
<!-- blocked&#45;&gt;ready -->
<g id="edge20" class="edge">
<title>blocked&#45;&gt;ready</title>
<path fill="none" stroke="#6b7280" d="M637.47,-292.27C628.08,-287.39 617.29,-282.61 606.84,-279.8 528.61,-258.78 432.45,-259.44 382.45,-261.66"/>
<polygon fill="#6b7280" stroke="#6b7280" points="382.43,-259.49 376.34,-261.95 382.64,-263.82 382.43,-259.49"/>
<text xml:space="preserve" text-anchor="middle" x="500.73" y="-282.05" font-family="Arial" font-size="7.50">what it waited on merged</text>
</g>
<!-- blocked&#45;&gt;cancelled -->
<g id="edge21" class="edge">
<title>blocked&#45;&gt;cancelled</title>
<path fill="none" stroke="#6b7280" d="M694.49,-310.03C796.88,-314.59 1155.86,-330.59 1277.29,-336"/>
<polygon fill="#6b7280" stroke="#6b7280" points="1277.13,-338.16 1283.43,-336.27 1277.33,-333.83 1277.13,-338.16"/>
</g>
<!-- failed&#45;&gt;ready -->
<g id="edge27" class="edge">
<title>failed&#45;&gt;ready</title>
<path fill="none" stroke="#6b7280" d="M1952.18,-175.83C1937.53,-171.67 1918.89,-166.83 1902,-163.8 1711.67,-129.69 1662.2,-130.37 1469.08,-120.8 1148.1,-104.9 1065.62,-94.04 746.03,-127.8 587.75,-144.52 527.62,-109.37 394.62,-196.8 379.22,-206.92 367.56,-224.16 359.83,-238.61"/>
<polygon fill="#6b7280" stroke="#6b7280" points="357.92,-237.59 357.04,-244.1 361.79,-239.55 357.92,-237.59"/>
<text xml:space="preserve" text-anchor="middle" x="778.74" y="-130.05" font-family="Arial" font-size="7.50">new attempt</text>
</g>
<!-- failed&#45;&gt;pr -->
<g id="edge28" class="edge">
<title>failed&#45;&gt;pr</title>
<path fill="none" stroke="#6b7280" d="M2006.96,-182.94C2051.76,-181.49 2142.56,-178.55 2192.61,-176.93"/>
<polygon fill="#6b7280" stroke="#6b7280" points="2192.64,-179.1 2198.76,-176.74 2192.5,-174.77 2192.64,-179.1"/>
<text xml:space="preserve" text-anchor="middle" x="2118.72" y="-183.46" font-family="Arial" font-size="7.50">handed off by a person, read by sync</text>
</g>
<!-- inconclusive&#45;&gt;done -->
<g id="edge35" class="edge">
<title>inconclusive&#45;&gt;done</title>
<path fill="none" stroke="#6b7280" d="M3006.4,-125.8C3022.24,-125.8 3040.36,-125.8 3055.65,-125.8"/>
<polygon fill="#6b7280" stroke="#6b7280" points="3055.64,-127.97 3061.84,-125.8 3055.64,-123.63 3055.64,-127.97"/>
<text xml:space="preserve" text-anchor="middle" x="3034.92" y="-128.05" font-family="Arial" font-size="7.50">close</text>
</g>
<!-- rollback&#45;&gt;spec -->
<g id="edge37" class="edge">
<title>rollback&#45;&gt;spec</title>
<path fill="none" stroke="#6b7280" d="M2756.78,-50.56C2726.78,-38.6 2683.62,-24.8 2644.13,-24.8 240.47,-24.8 240.47,-24.8 240.47,-24.8 158.76,-24.8 135.94,-326.4 130.89,-417.84"/>
<polygon fill="#6b7280" stroke="#6b7280" points="128.73,-417.71 130.57,-424.02 133.06,-417.94 128.73,-417.71"/>
<text xml:space="preserve" text-anchor="middle" x="1318.78" y="-27.05" font-family="Arial" font-size="7.50">reassess</text>
</g>
</g>
</svg>
